<svg xmlns="http://www.w3.org/2000/svg" viewBox="0 0 1440 820" preserveAspectRatio="xMidYMid slice">
  <defs>
    <path id="cd" d="M18 76 C6 76 0 62 12 57 C6 43 26 34 38 44 C42 26 70 26 78 43 C86 30 110 34 110 50 C126 44 140 58 128 70 C132 76 126 76 120 76 Z"/>
    <filter id="b1" x="-30%" y="-30%" width="160%" height="160%"><feGaussianBlur stdDeviation="5"/></filter>
    <filter id="b2" x="-30%" y="-30%" width="160%" height="160%"><feGaussianBlur stdDeviation="2.4"/></filter>
  </defs>

  <g fill="#39456a" opacity="0.55" filter="url(#b1)">
    <use href="#cd" transform="translate(30 70) scale(2.6)"/>
    <use href="#cd" transform="translate(820 30) scale(3.2)"/>
    <use href="#cd" transform="translate(1080 360) scale(2.8)"/>
    <use href="#cd" transform="translate(120 470) scale(3.0)"/>
    <use href="#cd" transform="translate(560 520) scale(2.6)"/>
  </g>

  <g fill="#4c5885" opacity="0.85" filter="url(#b2)">
    <use href="#cd" transform="translate(-40 200) scale(2.2)"/>
    <use href="#cd" transform="translate(470 120) scale(2.6)"/>
    <use href="#cd" transform="translate(1000 90) scale(2.3)"/>
    <use href="#cd" transform="translate(250 590) scale(2.8)"/>
    <use href="#cd" transform="translate(880 560) scale(2.5)"/>
    <use href="#cd" transform="translate(1200 250) scale(2.1)"/>
    <use href="#cd" transform="translate(640 300) scale(1.9)"/>
  </g>
</svg>
